HIERARCHY
ROOT Hips
{
    OFFSET 0.000000 0.000000 0.000000
    CHANNELS 6 Xposition Yposition Zposition Zrotation Xrotation Yrotation
    JOINT Spine
    {
        OFFSET -0.000000 7.777471 0.000000
        CHANNELS 3 Zrotation Xrotation Yrotation
        JOINT Spine1
        {
            OFFSET -0.000000 19.237825 0.000000
            CHANNELS 3 Zrotation Xrotation Yrotation
            JOINT Neck
            {
                OFFSET -0.000000 19.158819 1.741711
                CHANNELS 3 Zrotation Xrotation Yrotation
                JOINT Head
                {
                    OFFSET -0.000000 13.278608 -1.896944
                    CHANNELS 3 Zrotation Xrotation Yrotation
                    End Site
                    {
                        OFFSET -0.000000 23.711800 0.000000
                    }
                }
            }
            JOINT LeftShoulder
            {
                OFFSET 3.902881 16.228098 -0.345960
                CHANNELS 3 Zrotation Xrotation Yrotation
                JOINT LeftArm
                {
                    OFFSET 14.116480 0.000000 0.000000
                    CHANNELS 3 Zrotation Xrotation Yrotation
                    JOINT LeftForeArm
                    {
                        OFFSET 25.961430 0.000000 0.000000
                        CHANNELS 3 Zrotation Xrotation Yrotation
                        JOINT LeftHand
                        {
                            OFFSET 27.536947 0.000000 0.000000
                            CHANNELS 3 Zrotation Xrotation Yrotation
                            JOINT LeftHandThumb1
                            {
                                OFFSET 2.371180 -1.422708 4.742360
                                CHANNELS 3 Zrotation Xrotation Yrotation
                                JOINT LeftHandThumb2
                                {
                                    OFFSET 2.845416 0.000000 0.000000
                                    CHANNELS 3 Zrotation Xrotation Yrotation
                                    JOINT LeftHandThumb3
                                    {
                                        OFFSET 2.845416 0.000000 0.000000
                                        CHANNELS 3 Zrotation Xrotation Yrotation
                                        End Site
                                        {
                                            OFFSET 2.698797 0.000000 0.000000
                                        }
                                    }
                                }
                            }
                            JOINT LeftHandIndex1
                            {
                                OFFSET 7.559764 0.000000 3.319652
                                CHANNELS 3 Zrotation Xrotation Yrotation
                                JOINT LeftHandIndex2
                                {
                                    OFFSET 4.742360 0.000000 0.000000
                                    CHANNELS 3 Zrotation Xrotation Yrotation
                                    JOINT LeftHandIndex3
                                    {
                                        OFFSET 2.371180 0.000000 0.000000
                                        CHANNELS 3 Zrotation Xrotation Yrotation
                                        End Site
                                        {
                                            OFFSET 2.248998 0.000000 0.000000
                                        }
                                    }
                                }
                            }
                            JOINT LeftHandMiddle1
                            {
                                OFFSET 7.559764 0.000000 1.100227
                                CHANNELS 3 Zrotation Xrotation Yrotation
                                JOINT LeftHandMiddle2
                                {
                                    OFFSET 5.216596 0.000000 0.000000
                                    CHANNELS 3 Zrotation Xrotation Yrotation
                                    JOINT LeftHandMiddle3
                                    {
                                        OFFSET 2.845416 0.000000 0.000000
                                        CHANNELS 3 Zrotation Xrotation Yrotation
                                        End Site
                                        {
                                            OFFSET 2.698797 0.000000 0.000000
                                        }
                                    }
                                }
                            }
                            JOINT LeftHandRing1
                            {
                                OFFSET 5.414583 0.000000 -1.100227
                                CHANNELS 3 Zrotation Xrotation Yrotation
                                JOINT LeftHandRing2
                                {
                                    OFFSET 4.742360 0.000000 0.000000
                                    CHANNELS 3 Zrotation Xrotation Yrotation
                                    JOINT LeftHandRing3
                                    {
                                        OFFSET 2.371180 0.000000 0.000000
                                        CHANNELS 3 Zrotation Xrotation Yrotation
                                        End Site
                                        {
                                            OFFSET 2.248998 0.000000 0.000000
                                        }
                                    }
                                }
                            }
                            JOINT LeftHandPinky1
                            {
                                OFFSET 3.269401 0.000000 -3.319652
                                CHANNELS 3 Zrotation Xrotation Yrotation
                                JOINT LeftHandPinky2
                                {
                                    OFFSET 3.793888 0.000000 0.000000
                                    CHANNELS 3 Zrotation Xrotation Yrotation
                                    JOINT LeftHandPinky3
                                    {
                                        OFFSET 1.896944 0.000000 0.000000
                                        CHANNELS 3 Zrotation Xrotation Yrotation
                                        End Site
                                        {
                                            OFFSET 1.799198 0.000000 0.000000
                                        }
                                    }
                                }
                            }
                        }
                    }
                }
            }
            JOINT RightShoulder
            {
                OFFSET -3.635630 16.228098 -0.345960
                CHANNELS 3 Zrotation Xrotation Yrotation
                JOINT RightArm
                {
                    OFFSET -14.116480 0.000000 0.000000
                    CHANNELS 3 Zrotation Xrotation Yrotation
                    JOINT RightForeArm
                    {
                        OFFSET -25.961430 0.000000 0.000000
                        CHANNELS 3 Zrotation Xrotation Yrotation
                        JOINT RightHand
                        {
                            OFFSET -27.536947 0.000000 0.000000
                            CHANNELS 3 Zrotation Xrotation Yrotation
                            JOINT RightHandThumb1
                            {
                                OFFSET -2.371180 -1.422708 4.742360
                                CHANNELS 3 Zrotation Xrotation Yrotation
                                JOINT RightHandThumb2
                                {
                                    OFFSET -2.845416 0.000000 0.000000
                                    CHANNELS 3 Zrotation Xrotation Yrotation
                                    JOINT RightHandThumb3
                                    {
                                        OFFSET -2.845416 0.000000 0.000000
                                        CHANNELS 3 Zrotation Xrotation Yrotation
                                        End Site
                                        {
                                            OFFSET -2.698797 0.000000 0.000000
                                        }
                                    }
                                }
                            }
                            JOINT RightHandIndex1
                            {
                                OFFSET -7.559764 0.000000 3.319652
                                CHANNELS 3 Zrotation Xrotation Yrotation
                                JOINT RightHandIndex2
                                {
                                    OFFSET -4.742360 0.000000 0.000000
                                    CHANNELS 3 Zrotation Xrotation Yrotation
                                    JOINT RightHandIndex3
                                    {
                                        OFFSET -2.371180 0.000000 0.000000
                                        CHANNELS 3 Zrotation Xrotation Yrotation
                                        End Site
                                        {
                                            OFFSET -2.248998 0.000000 0.000000
                                        }
                                    }
                                }
                            }
                            JOINT RightHandMiddle1
                            {
                                OFFSET -7.559764 0.000000 1.100227
                                CHANNELS 3 Zrotation Xrotation Yrotation
                                JOINT RightHandMiddle2
                                {
                                    OFFSET -5.216596 0.000000 0.000000
                                    CHANNELS 3 Zrotation Xrotation Yrotation
                                    JOINT RightHandMiddle3
                                    {
                                        OFFSET -2.845416 0.000000 0.000000
                                        CHANNELS 3 Zrotation Xrotation Yrotation
                                        End Site
                                        {
                                            OFFSET -2.698797 0.000000 0.000000
                                        }
                                    }
                                }
                            }
                            JOINT RightHandRing1
                            {
                                OFFSET -5.414583 0.000000 -1.100227
                                CHANNELS 3 Zrotation Xrotation Yrotation
                                JOINT RightHandRing2
                                {
                                    OFFSET -4.742360 0.000000 0.000000
                                    CHANNELS 3 Zrotation Xrotation Yrotation
                                    JOINT RightHandRing3
                                    {
                                        OFFSET -2.371180 0.000000 0.000000
                                        CHANNELS 3 Zrotation Xrotation Yrotation
                                        End Site
                                        {
                                            OFFSET -2.248998 0.000000 0.000000
                                        }
                                    }
                                }
                            }
                            JOINT RightHandPinky1
                            {
                                OFFSET -3.269401 0.000000 -3.319652
                                CHANNELS 3 Zrotation Xrotation Yrotation
                                JOINT RightHandPinky2
                                {
                                    OFFSET -3.793888 0.000000 0.000000
                                    CHANNELS 3 Zrotation Xrotation Yrotation
                                    JOINT RightHandPinky3
                                    {
                                        OFFSET -1.896944 0.000000 0.000000
                                        CHANNELS 3 Zrotation Xrotation Yrotation
                                        End Site
                                        {
                                            OFFSET -1.799198 0.000000 0.000000
                                        }
                                    }
                                }
                            }
                        }
                    }
                }
            }
        }
    }
    JOINT LeftUpLeg
    {
        OFFSET 9.484720 0.000000 0.000000
        CHANNELS 3 Zrotation Xrotation Yrotation
        JOINT LeftLeg
        {
            OFFSET -0.000000 -47.884224 0.000000
            CHANNELS 3 Zrotation Xrotation Yrotation
            JOINT LeftFoot
            {
                OFFSET -0.000000 -35.185558 0.000000
                CHANNELS 3 Zrotation Xrotation Yrotation
                JOINT LeftToeBase
                {
                    OFFSET -0.000000 -6.165068 14.227080
                    CHANNELS 3 Zrotation Xrotation Yrotation
                    End Site
                    {
                        OFFSET -0.000000 0.000000 3.793888
                    }
                }
            }
        }
    }
    JOINT RightUpLeg
    {
        OFFSET -9.484720 0.000000 0.000000
        CHANNELS 3 Zrotation Xrotation Yrotation
        JOINT RightLeg
        {
            OFFSET -0.000000 -47.884224 0.000000
            CHANNELS 3 Zrotation Xrotation Yrotation
            JOINT RightFoot
            {
                OFFSET -0.000000 -35.185558 0.000000
                CHANNELS 3 Zrotation Xrotation Yrotation
                JOINT RightToeBase
                {
                    OFFSET -0.000000 -6.165068 14.227080
                    CHANNELS 3 Zrotation Xrotation Yrotation
                    End Site
                    {
                        OFFSET -0.000000 0.000000 3.793888
                    }
                }
            }
        }
    }
}
MOTION
Frames:    4
Frame Time:    0.008333
5.649424    90.911079    -45.516087    4.452048    11.550097    2.314379    -5.886821    -9.201394    -1.704316    6.626747    6.211765    -1.590267    -3.186422    5.480027    2.776832    -15.981280    -5.129220    0.211097    8.171294    8.530569    11.010390    -43.988827    40.025578    -35.709797    54.208717    -43.988251    -91.893631    0.340784    -8.566765    -34.148441    -1.229091    -2.936316    67.274590    -0.000000    0.000000    33.653042    -0.000000    0.000000    67.306099    -36.783241    0.000000    0.000000    -73.566483    0.000000    0.000000    -36.783241    0.000000    0.000000    -29.267103    0.000000    0.000000    -58.534210    0.000000    0.000000    -29.267103    0.000000    0.000000    -21.750967    0.000000    0.000000    -43.501934    0.000000    0.000000    -21.750967    0.000000    0.000000    -14.007070    0.000000    0.000000    -28.014139    0.000000    0.000000    -14.007070    0.000000    0.000000    -4.710199    4.396719    9.769347    51.071747    38.542252    19.532280    -55.123146    -37.523113    95.328690    15.605179    -5.878544    18.022270    -3.696071    19.669270    -79.135918    0.000000    0.000000    -39.888432    0.000000    0.000000    -79.776863    12.461916    0.000000    -0.000000    24.923832    0.000000    -0.000000    12.461916    0.000000    -0.000000    14.580553    0.000000    -0.000000    29.161106    0.000000    -0.000000    14.580553    0.000000    -0.000000    16.699190    0.000000    -0.000000    33.398384    0.000000    -0.000000    16.699190    0.000000    -0.000000    18.882030    0.000000    -0.000000    37.764057    0.000000    -0.000000    18.882030    0.000000    -0.000000    -5.901061    -30.879723    1.681046    -7.474032    42.232300    4.762294    -2.156081    -11.821586    12.709768    -0.696775    -8.992209    2.192329    -8.207913    -20.995525    4.455411    6.667266    29.978699    2.045143    -0.528141    -9.571822    -20.573601    1.802873    -15.424732    -6.218668
5.551006    90.096405    -45.477570    3.967381    11.282560    3.066159    -5.855861    -8.635427    -1.398187    5.851573    5.348893    -1.229359    -3.905259    6.159993    1.939715    -13.802440    -5.338681    -0.225793    8.106333    8.655394    11.057440    -46.564571    39.252514    -36.774448    48.304852    -44.213120    -96.867081    2.425763    -1.975381    -32.002048    0.264360    0.351338    53.040405    -0.000000    0.000000    26.520607    -0.000000    0.000000    53.041214    -27.994511    0.588676    -1.107237    -56.000401    0.000000    0.000000    -28.000200    0.000000    0.000000    -23.277176    0.364063    -0.758534    -46.559586    0.000000    0.000000    -23.279793    0.000000    0.000000    -18.558636    0.168890    -0.392545    -37.118774    0.000000    0.000000    -18.559385    0.000000    0.000000    -13.695940    0.000000    0.000000    -27.391880    0.000000    0.000000    -13.695940    0.000000    0.000000    -5.733114    3.855237    10.130943    48.934971    39.230148    21.732191    -54.647915    -40.147591    96.210175    13.696494    -5.011386    18.830471    -3.696071    19.669270    -79.135918    0.000000    0.000000    -39.888432    0.000000    0.000000    -79.776863    12.461916    0.000000    -0.000000    24.923832    0.000000    -0.000000    12.461916    0.000000    -0.000000    14.869847    0.000000    -0.000000    29.739687    0.000000    -0.000000    14.869847    0.000000    -0.000000    17.277779    0.000000    -0.000000    34.555550    0.000000    -0.000000    17.277779    0.000000    -0.000000    19.758671    0.000000    -0.000000    39.517342    0.000000    -0.000000    19.758671    0.000000    -0.000000    -6.266183    -30.247301    1.132219    -7.137288    42.247383    2.962933    0.733650    -13.684618    15.661793    0.623046    -8.520124    -1.937515    -7.636779    -20.018904    4.107470    6.510927    29.449739    2.542793    -0.938984    -11.492779    -22.633812    1.129919    -13.516036    -3.699473
5.509896    89.242729    -45.406387    3.574335    10.819036    3.871538    -5.536418    -8.943336    -1.163895    4.408309    6.512336    -0.981546    -4.116896    6.235396    1.130397    -11.910371    -5.959422    -0.754172    8.527224    7.939347    11.345012    -48.583580    38.999428    -38.105145    42.297920    -44.717285    -101.432892    2.627794    1.263824    -32.177315    1.064601    1.467124    54.027832    -0.000000    0.000000    27.020731    -0.000000    0.000000    54.041462    -27.240625    0.403863    -0.784409    -54.486771    0.000000    0.000000    -27.243387    0.000000    0.000000    -22.533274    0.249129    -0.536986    -45.069088    0.000000    0.000000    -22.534544    0.000000    0.000000    -17.825342    0.115223    -0.277702    -35.651405    0.000000    0.000000    -17.825703    0.000000    0.000000    -12.974167    0.000000    0.000000    -25.948332    0.000000    0.000000    -12.974167    0.000000    0.000000    -6.894637    2.324542    10.621968    46.387806    38.718174    24.162922    -57.656788    -42.033985    94.846191    10.909259    -4.656953    19.455729    -3.696071    19.669270    -79.135918    0.000000    0.000000    -39.888432    0.000000    0.000000    -79.776863    7.025906    0.000000    -0.000000    14.051811    0.000000    -0.000000    7.025906    0.000000    -0.000000    10.961372    0.000000    -0.000000    21.922745    0.000000    -0.000000    10.961372    0.000000    -0.000000    14.896841    0.000000    -0.000000    29.793680    0.000000    -0.000000    14.896841    0.000000    -0.000000    18.951563    0.000000    -0.000000    37.903130    0.000000    -0.000000    18.951563    0.000000    -0.000000    -6.563773    -29.354189    0.137982    -7.140684    41.871681    2.401298    3.961991    -13.670406    15.401347    -1.222131    -9.162017    3.860791    -7.543022    -18.980917    3.938197    7.151305    28.943350    1.945342    -2.056803    -12.698362    -23.530933    0.495473    -10.406538    -1.500155
5.523466    88.365578    -45.306339    3.310171    10.206172    4.673878    -5.122111    -8.601458    -0.891420    2.711837    6.701413    -0.664981    -4.228495    6.875902    0.391570    -10.100856    -6.615245    -1.240475    8.631988    7.666648    11.204406    -50.867046    38.579735    -38.646576    49.636471    -45.282566    -96.598320    4.875287    -4.997358    -31.688948    0.277691    0.357705    52.176941    -0.000000    0.000000    26.088903    -0.000000    0.000000    52.177811    -26.702574    0.056920    -0.113160    -53.405254    0.000000    0.000000    -26.702627    0.000000    0.000000    -22.093534    0.035105    -0.077395    -44.187111    0.000000    0.000000    -22.093557    0.000000    0.000000    -17.484482    0.016234    -0.039993    -34.968975    0.000000    0.000000    -17.484491    0.000000    0.000000    -12.735752    0.000000    0.000000    -25.471506    0.000000    0.000000    -12.735752    0.000000    0.000000    -7.524420    1.055369    11.279852    43.970432    38.578140    25.303648    -51.564938    -44.445156    99.629143    9.269804    -3.727890    18.440088    -3.696071    19.669270    -79.135918    0.000000    0.000000    -39.888432    0.000000    0.000000    -79.776863    11.629795    0.000000    -0.000000    23.259590    0.000000    -0.000000    11.629795    0.000000    -0.000000    13.563904    0.000000    -0.000000    27.127808    0.000000    -0.000000    13.563904    0.000000    -0.000000    15.498014    0.000000    -0.000000    30.996029    0.000000    -0.000000    15.498014    0.000000    -0.000000    17.490734    0.000000    -0.000000    34.981461    0.000000    -0.000000    17.490734    0.000000    -0.000000    -6.742347    -28.336334    -1.127248    -7.541561    41.842213    2.938124    4.169704    -15.272812    16.396383    -1.363285    -7.219054    4.107518    -7.782745    -17.937935    3.430341    7.973476    29.075672    1.939015    -3.261399    -13.500249    -23.344904    1.291719    -11.063801    -3.972383
